<mxfile host="Electron" modified="2024-04-28T20:00:46.743Z" agent="Mozilla/5.0 (X11; Linux x86_64) AppleWebKit/537.36 (KHTML, like Gecko) draw.io/24.2.5 Chrome/120.0.6099.109 Electron/28.1.0 Safari/537.36" etag="5mTFoG1ZWZmbc6m1fiFe" version="24.2.5" type="device" pages="2">
  <diagram name="ApiGateway" id="STROwBa42_PdTlU-i0o5">
    <mxGraphModel dx="1062" dy="716" grid="0" gridSize="10" guides="1" tooltips="1" connect="1" arrows="1" fold="1" page="0" pageScale="1" pageWidth="850" pageHeight="1100" math="0" shadow="0">
      <root>
        <mxCell id="0" />
        <mxCell id="1" parent="0" />
        <mxCell id="ZQPuEEiEey5MaIG2Yd8g-3" style="edgeStyle=orthogonalEdgeStyle;rounded=0;orthogonalLoop=1;jettySize=auto;html=1;flowAnimation=1;flowAnimationTimingFunction=linear;flowAnimationDuration=250;" edge="1" parent="1" source="ZQPuEEiEey5MaIG2Yd8g-2" target="ZQPuEEiEey5MaIG2Yd8g-1">
          <mxGeometry relative="1" as="geometry" />
        </mxCell>
        <mxCell id="ZQPuEEiEey5MaIG2Yd8g-2" value="" style="sketch=0;outlineConnect=0;fontColor=#232F3E;gradientColor=none;fillColor=#7AA116;strokeColor=none;dashed=0;verticalLabelPosition=bottom;verticalAlign=top;align=center;html=1;fontSize=12;fontStyle=0;aspect=fixed;pointerEvents=1;shape=mxgraph.aws4.http_protocol;" vertex="1" parent="1">
          <mxGeometry x="180" y="400" width="78" height="78" as="geometry" />
        </mxCell>
        <UserObject label="" link="data:page/id,OmvBwDkVGz3D_NDkt1mV" id="ZQPuEEiEey5MaIG2Yd8g-5">
          <mxCell style="group" vertex="1" connectable="0" parent="1">
            <mxGeometry x="390" y="90" width="80" height="698" as="geometry" />
          </mxCell>
        </UserObject>
        <mxCell id="ZQPuEEiEey5MaIG2Yd8g-1" value="" style="rounded=0;whiteSpace=wrap;html=1;" vertex="1" parent="ZQPuEEiEey5MaIG2Yd8g-5">
          <mxGeometry width="80" height="698" as="geometry" />
        </mxCell>
        <UserObject label="ApiGateway/&amp;nbsp;&lt;b&gt;AUTH&lt;/b&gt;" link="data:page/id,OmvBwDkVGz3D_NDkt1mV" id="ZQPuEEiEey5MaIG2Yd8g-4">
          <mxCell style="text;html=1;align=center;verticalAlign=middle;whiteSpace=wrap;rounded=0;rotation=-90;" vertex="1" parent="ZQPuEEiEey5MaIG2Yd8g-5">
            <mxGeometry x="-55" y="334" width="190" height="30" as="geometry" />
          </mxCell>
        </UserObject>
        <mxCell id="ZQPuEEiEey5MaIG2Yd8g-6" value="MS3" style="rounded=0;whiteSpace=wrap;html=1;" vertex="1" parent="1">
          <mxGeometry x="711" y="728" width="120" height="60" as="geometry" />
        </mxCell>
        <mxCell id="ZQPuEEiEey5MaIG2Yd8g-7" value="MS1" style="rounded=0;whiteSpace=wrap;html=1;" vertex="1" parent="1">
          <mxGeometry x="711" y="92" width="120" height="60" as="geometry" />
        </mxCell>
        <mxCell id="ZQPuEEiEey5MaIG2Yd8g-8" value="MS2" style="rounded=0;whiteSpace=wrap;html=1;" vertex="1" parent="1">
          <mxGeometry x="711" y="417" width="120" height="60" as="geometry" />
        </mxCell>
        <mxCell id="ZQPuEEiEey5MaIG2Yd8g-12" style="edgeStyle=orthogonalEdgeStyle;rounded=0;orthogonalLoop=1;jettySize=auto;html=1;entryX=0;entryY=0.25;entryDx=0;entryDy=0;flowAnimation=1;" edge="1" parent="1" source="ZQPuEEiEey5MaIG2Yd8g-1" target="ZQPuEEiEey5MaIG2Yd8g-8">
          <mxGeometry relative="1" as="geometry">
            <Array as="points">
              <mxPoint x="533" y="432" />
              <mxPoint x="533" y="432" />
            </Array>
          </mxGeometry>
        </mxCell>
        <mxCell id="ZQPuEEiEey5MaIG2Yd8g-13" style="edgeStyle=orthogonalEdgeStyle;rounded=0;orthogonalLoop=1;jettySize=auto;html=1;entryX=0.99;entryY=0.526;entryDx=0;entryDy=0;entryPerimeter=0;flowAnimation=1;" edge="1" parent="1" source="ZQPuEEiEey5MaIG2Yd8g-8" target="ZQPuEEiEey5MaIG2Yd8g-1">
          <mxGeometry relative="1" as="geometry">
            <Array as="points">
              <mxPoint x="652" y="457" />
              <mxPoint x="652" y="457" />
            </Array>
          </mxGeometry>
        </mxCell>
        <mxCell id="ZQPuEEiEey5MaIG2Yd8g-15" style="edgeStyle=orthogonalEdgeStyle;rounded=0;orthogonalLoop=1;jettySize=auto;html=1;entryX=0;entryY=0.25;entryDx=0;entryDy=0;flowAnimation=1;" edge="1" parent="1" source="ZQPuEEiEey5MaIG2Yd8g-1" target="ZQPuEEiEey5MaIG2Yd8g-7">
          <mxGeometry relative="1" as="geometry">
            <Array as="points">
              <mxPoint x="544" y="107" />
              <mxPoint x="544" y="107" />
            </Array>
          </mxGeometry>
        </mxCell>
        <mxCell id="ZQPuEEiEey5MaIG2Yd8g-16" style="edgeStyle=orthogonalEdgeStyle;rounded=0;orthogonalLoop=1;jettySize=auto;html=1;entryX=0.999;entryY=0.058;entryDx=0;entryDy=0;entryPerimeter=0;flowAnimation=1;" edge="1" parent="1" source="ZQPuEEiEey5MaIG2Yd8g-7" target="ZQPuEEiEey5MaIG2Yd8g-1">
          <mxGeometry relative="1" as="geometry">
            <Array as="points">
              <mxPoint x="591" y="130" />
            </Array>
          </mxGeometry>
        </mxCell>
        <mxCell id="ZQPuEEiEey5MaIG2Yd8g-18" style="edgeStyle=orthogonalEdgeStyle;rounded=0;orthogonalLoop=1;jettySize=auto;html=1;entryX=0;entryY=0.25;entryDx=0;entryDy=0;flowAnimation=1;" edge="1" parent="1" source="ZQPuEEiEey5MaIG2Yd8g-1" target="ZQPuEEiEey5MaIG2Yd8g-6">
          <mxGeometry relative="1" as="geometry">
            <Array as="points">
              <mxPoint x="568" y="743" />
              <mxPoint x="568" y="743" />
            </Array>
          </mxGeometry>
        </mxCell>
        <mxCell id="ZQPuEEiEey5MaIG2Yd8g-19" style="edgeStyle=orthogonalEdgeStyle;rounded=0;orthogonalLoop=1;jettySize=auto;html=1;entryX=0.962;entryY=0.969;entryDx=0;entryDy=0;entryPerimeter=0;flowAnimation=1;" edge="1" parent="1" source="ZQPuEEiEey5MaIG2Yd8g-6" target="ZQPuEEiEey5MaIG2Yd8g-1">
          <mxGeometry relative="1" as="geometry">
            <Array as="points">
              <mxPoint x="591" y="766" />
            </Array>
          </mxGeometry>
        </mxCell>
        <mxCell id="ZQPuEEiEey5MaIG2Yd8g-20" value="" style="sketch=0;outlineConnect=0;fontColor=#232F3E;gradientColor=none;strokeColor=#FFFFFF;fillColor=none;dashed=0;verticalLabelPosition=bottom;verticalAlign=top;align=center;html=1;fontSize=12;fontStyle=1;aspect=fixed;shape=mxgraph.aws4.resourceIcon;resIcon=mxgraph.aws4.http_protocol;" vertex="1" parent="1">
          <mxGeometry x="586" y="80" width="27" height="27" as="geometry" />
        </mxCell>
        <mxCell id="ZQPuEEiEey5MaIG2Yd8g-21" value="" style="sketch=0;outlineConnect=0;fontColor=#232F3E;gradientColor=none;strokeColor=#FFFFFF;fillColor=none;dashed=0;verticalLabelPosition=bottom;verticalAlign=top;align=center;html=1;fontSize=12;fontStyle=0;aspect=fixed;shape=mxgraph.aws4.resourceIcon;resIcon=mxgraph.aws4.http_protocol;" vertex="1" parent="1">
          <mxGeometry x="586" y="400" width="27" height="27" as="geometry" />
        </mxCell>
        <mxCell id="ZQPuEEiEey5MaIG2Yd8g-22" value="" style="sketch=0;outlineConnect=0;fontColor=#232F3E;gradientColor=none;strokeColor=#FFFFFF;fillColor=none;dashed=0;verticalLabelPosition=bottom;verticalAlign=top;align=center;html=1;fontSize=12;fontStyle=0;aspect=fixed;shape=mxgraph.aws4.resourceIcon;resIcon=mxgraph.aws4.http_protocol;" vertex="1" parent="1">
          <mxGeometry x="586" y="710" width="27" height="27" as="geometry" />
        </mxCell>
      </root>
    </mxGraphModel>
  </diagram>
  <diagram id="OmvBwDkVGz3D_NDkt1mV" name="AUTH">
    <mxGraphModel dx="1595" dy="1205" grid="0" gridSize="10" guides="1" tooltips="1" connect="1" arrows="1" fold="1" page="0" pageScale="1" pageWidth="850" pageHeight="1100" math="0" shadow="0">
      <root>
        <mxCell id="0" />
        <mxCell id="1" parent="0" />
        <mxCell id="8oEydsMCGnKSV4G4BEWf-1" value="" style="rounded=0;whiteSpace=wrap;html=1;" vertex="1" parent="1">
          <mxGeometry x="-329" y="-87" width="1030" height="691" as="geometry" />
        </mxCell>
        <mxCell id="8oEydsMCGnKSV4G4BEWf-2" value="" style="sketch=0;pointerEvents=1;shadow=0;dashed=0;html=1;strokeColor=none;labelPosition=center;verticalLabelPosition=bottom;verticalAlign=top;outlineConnect=0;align=center;shape=mxgraph.office.security.lock_protected;fillColor=#CCCBCB;" vertex="1" parent="1">
          <mxGeometry x="-329" y="-148" width="38" height="52" as="geometry" />
        </mxCell>
        <mxCell id="8oEydsMCGnKSV4G4BEWf-3" value="" style="outlineConnect=0;dashed=0;verticalLabelPosition=bottom;verticalAlign=top;align=center;html=1;shape=mxgraph.aws3.http_protocol;fillColor=#5294CF;gradientColor=none;" vertex="1" parent="1">
          <mxGeometry x="-304" y="196" width="63" height="66" as="geometry" />
        </mxCell>
        <mxCell id="8oEydsMCGnKSV4G4BEWf-7" style="edgeStyle=orthogonalEdgeStyle;rounded=0;orthogonalLoop=1;jettySize=auto;html=1;entryX=0;entryY=0.5;entryDx=0;entryDy=0;flowAnimation=1;" edge="1" parent="1" source="8oEydsMCGnKSV4G4BEWf-4" target="8oEydsMCGnKSV4G4BEWf-6">
          <mxGeometry relative="1" as="geometry" />
        </mxCell>
        <mxCell id="8oEydsMCGnKSV4G4BEWf-4" value="" style="sketch=0;aspect=fixed;pointerEvents=1;shadow=0;dashed=0;html=1;strokeColor=none;labelPosition=center;verticalLabelPosition=bottom;verticalAlign=top;align=center;fillColor=#FFFFFF;shape=mxgraph.mscae.enterprise.filter" vertex="1" parent="1">
          <mxGeometry x="-85" y="206.5" width="50" height="45" as="geometry" />
        </mxCell>
        <mxCell id="8oEydsMCGnKSV4G4BEWf-5" style="edgeStyle=orthogonalEdgeStyle;rounded=0;orthogonalLoop=1;jettySize=auto;html=1;entryX=-0.06;entryY=0.5;entryDx=0;entryDy=0;entryPerimeter=0;flowAnimation=1;" edge="1" parent="1" source="8oEydsMCGnKSV4G4BEWf-3" target="8oEydsMCGnKSV4G4BEWf-4">
          <mxGeometry relative="1" as="geometry" />
        </mxCell>
        <mxCell id="8oEydsMCGnKSV4G4BEWf-9" style="edgeStyle=orthogonalEdgeStyle;rounded=0;orthogonalLoop=1;jettySize=auto;html=1;entryX=0;entryY=0.5;entryDx=0;entryDy=0;flowAnimation=1;" edge="1" parent="1" source="8oEydsMCGnKSV4G4BEWf-6" target="8oEydsMCGnKSV4G4BEWf-8">
          <mxGeometry relative="1" as="geometry" />
        </mxCell>
        <mxCell id="8oEydsMCGnKSV4G4BEWf-6" value="TOKEN VALIDATION" style="rounded=0;whiteSpace=wrap;html=1;" vertex="1" parent="1">
          <mxGeometry x="66" y="199" width="120" height="60" as="geometry" />
        </mxCell>
        <mxCell id="8oEydsMCGnKSV4G4BEWf-12" style="edgeStyle=orthogonalEdgeStyle;rounded=0;orthogonalLoop=1;jettySize=auto;html=1;entryX=0;entryY=0.5;entryDx=0;entryDy=0;" edge="1" parent="1" source="8oEydsMCGnKSV4G4BEWf-8" target="8oEydsMCGnKSV4G4BEWf-11">
          <mxGeometry relative="1" as="geometry" />
        </mxCell>
        <mxCell id="8oEydsMCGnKSV4G4BEWf-13" value="YES" style="edgeLabel;html=1;align=center;verticalAlign=middle;resizable=0;points=[];" vertex="1" connectable="0" parent="8oEydsMCGnKSV4G4BEWf-12">
          <mxGeometry x="-0.2154" relative="1" as="geometry">
            <mxPoint as="offset" />
          </mxGeometry>
        </mxCell>
        <mxCell id="8oEydsMCGnKSV4G4BEWf-16" style="edgeStyle=orthogonalEdgeStyle;rounded=0;orthogonalLoop=1;jettySize=auto;html=1;entryX=1;entryY=0.5;entryDx=0;entryDy=0;flowAnimation=1;" edge="1" parent="1" source="8oEydsMCGnKSV4G4BEWf-8" target="8oEydsMCGnKSV4G4BEWf-15">
          <mxGeometry relative="1" as="geometry">
            <Array as="points">
              <mxPoint x="322" y="369" />
            </Array>
          </mxGeometry>
        </mxCell>
        <mxCell id="8oEydsMCGnKSV4G4BEWf-8" value="success" style="rhombus;whiteSpace=wrap;html=1;" vertex="1" parent="1">
          <mxGeometry x="282" y="189" width="80" height="80" as="geometry" />
        </mxCell>
        <mxCell id="8oEydsMCGnKSV4G4BEWf-11" value="INVOKE PATH" style="rounded=0;whiteSpace=wrap;html=1;" vertex="1" parent="1">
          <mxGeometry x="449" y="199" width="120" height="60" as="geometry" />
        </mxCell>
        <mxCell id="8oEydsMCGnKSV4G4BEWf-17" style="edgeStyle=orthogonalEdgeStyle;rounded=0;orthogonalLoop=1;jettySize=auto;html=1;flowAnimation=1;" edge="1" parent="1" source="8oEydsMCGnKSV4G4BEWf-15" target="8oEydsMCGnKSV4G4BEWf-3">
          <mxGeometry relative="1" as="geometry" />
        </mxCell>
        <mxCell id="8oEydsMCGnKSV4G4BEWf-15" value="UNAUTHORIZED" style="rounded=0;whiteSpace=wrap;html=1;" vertex="1" parent="1">
          <mxGeometry x="66" y="339" width="120" height="60" as="geometry" />
        </mxCell>
        <mxCell id="8oEydsMCGnKSV4G4BEWf-18" style="edgeStyle=orthogonalEdgeStyle;rounded=0;orthogonalLoop=1;jettySize=auto;html=1;entryX=1;entryY=0.448;entryDx=0;entryDy=0;entryPerimeter=0;flowAnimation=1;" edge="1" parent="1">
          <mxGeometry relative="1" as="geometry">
            <mxPoint x="569" y="227.58333333333326" as="sourcePoint" />
            <mxPoint x="701" y="227.56799999999998" as="targetPoint" />
            <Array as="points">
              <mxPoint x="602" y="228" />
            </Array>
          </mxGeometry>
        </mxCell>
        <mxCell id="8oEydsMCGnKSV4G4BEWf-19" style="edgeStyle=orthogonalEdgeStyle;rounded=0;orthogonalLoop=1;jettySize=auto;html=1;entryX=-0.001;entryY=0.456;entryDx=0;entryDy=0;entryPerimeter=0;" edge="1" parent="1" source="8oEydsMCGnKSV4G4BEWf-3" target="8oEydsMCGnKSV4G4BEWf-1">
          <mxGeometry relative="1" as="geometry">
            <Array as="points">
              <mxPoint x="-303" y="228" />
              <mxPoint x="-303" y="228" />
            </Array>
          </mxGeometry>
        </mxCell>
      </root>
    </mxGraphModel>
  </diagram>
</mxfile>
